<mxfile host="app.diagrams.net" agent="Mozilla/5.0 (Macintosh; Intel Mac OS X 10_15_7) AppleWebKit/537.36 (KHTML, like Gecko) Chrome/114.0.0.0 Safari/537.36" version="24.8.0">
  <diagram name="Страница — 1" id="Ma91BWil_ssSF-kNVNje">
    <mxGraphModel dx="1223" dy="1117" grid="1" gridSize="10" guides="1" tooltips="1" connect="1" arrows="1" fold="1" page="1" pageScale="1" pageWidth="827" pageHeight="1169" math="0" shadow="0">
      <root>
        <mxCell id="0" />
        <mxCell id="1" parent="0" />
        <mxCell id="qpSAZJQmiiE4QWzmZC8Z-1" value="" style="rounded=0;whiteSpace=wrap;html=1;fillColor=#e1d5e7;strokeColor=#9673a6;" parent="1" vertex="1">
          <mxGeometry x="50" y="560" width="240" height="330" as="geometry" />
        </mxCell>
        <mxCell id="qpSAZJQmiiE4QWzmZC8Z-2" value="Я как пользователь туристического мобильного приложения ,&amp;nbsp;&#xa;хочу иметь доступ к чату с консультантом , для того чтобы выбрать подходящий мне тур ." style="text;html=1;align=center;verticalAlign=middle;whiteSpace=wrap;rounded=0;fontSize=19;" parent="1" vertex="1">
          <mxGeometry x="430" y="290" width="590" height="30" as="geometry" />
        </mxCell>
        <mxCell id="qpSAZJQmiiE4QWzmZC8Z-3" value="&lt;span style=&quot;color: rgb(0, 0, 0); font-family: Helvetica; font-size: 20px; font-style: normal; font-variant-ligatures: normal; font-variant-caps: normal; font-weight: 400; letter-spacing: normal; orphans: 2; text-align: center; text-indent: 0px; text-transform: none; widows: 2; word-spacing: 0px; -webkit-text-stroke-width: 0px; white-space: normal; background-color: rgb(251, 251, 251); text-decoration-thickness: initial; text-decoration-style: initial; text-decoration-color: initial; float: none; display: inline !important;&quot;&gt;мп - тур агенства&lt;/span&gt;" style="text;html=1;align=center;verticalAlign=middle;whiteSpace=wrap;rounded=0;fontSize=20;" parent="1" vertex="1">
          <mxGeometry x="140" y="290" width="60" height="30" as="geometry" />
        </mxCell>
        <mxCell id="qpSAZJQmiiE4QWzmZC8Z-14" value="основной экран" style="text;html=1;align=center;verticalAlign=middle;whiteSpace=wrap;rounded=0;" parent="1" vertex="1">
          <mxGeometry x="100" y="570" width="120" height="30" as="geometry" />
        </mxCell>
        <mxCell id="qpSAZJQmiiE4QWzmZC8Z-17" value="задать ворос&amp;nbsp;" style="rounded=0;whiteSpace=wrap;html=1;fillColor=#d5e8d4;strokeColor=#82b366;" parent="1" vertex="1">
          <mxGeometry x="62.5" y="810" width="217.5" height="70" as="geometry" />
        </mxCell>
        <mxCell id="qpSAZJQmiiE4QWzmZC8Z-18" value="" style="endArrow=classic;html=1;rounded=0;exitX=1;exitY=0.5;exitDx=0;exitDy=0;entryX=-0.004;entryY=0.358;entryDx=0;entryDy=0;entryPerimeter=0;" parent="1" source="qpSAZJQmiiE4QWzmZC8Z-17" edge="1">
          <mxGeometry width="50" height="50" relative="1" as="geometry">
            <mxPoint x="530" y="740" as="sourcePoint" />
            <mxPoint x="499.31999999999994" y="728.76" as="targetPoint" />
            <Array as="points">
              <mxPoint x="360" y="845" />
              <mxPoint x="360" y="730" />
            </Array>
          </mxGeometry>
        </mxCell>
        <mxCell id="l0X42Bm0tS4iPZdSs6m8-1" value="" style="rounded=0;whiteSpace=wrap;html=1;fillColor=#e1d5e7;strokeColor=#9673a6;" vertex="1" parent="1">
          <mxGeometry x="500" y="560" width="240" height="330" as="geometry" />
        </mxCell>
        <mxCell id="l0X42Bm0tS4iPZdSs6m8-10" value="" style="rounded=0;whiteSpace=wrap;html=1;fillColor=#f5f5f5;strokeColor=#666666;fontColor=#333333;" vertex="1" parent="1">
          <mxGeometry x="560" y="660" width="170" height="220" as="geometry" />
        </mxCell>
        <mxCell id="l0X42Bm0tS4iPZdSs6m8-12" value="&amp;gt;&amp;lt;" style="rounded=0;whiteSpace=wrap;html=1;fillColor=#f8cecc;strokeColor=#b85450;" vertex="1" parent="1">
          <mxGeometry x="697.5" y="670" width="23" height="20" as="geometry" />
        </mxCell>
        <mxCell id="l0X42Bm0tS4iPZdSs6m8-13" value="" style="rounded=0;whiteSpace=wrap;html=1;fillColor=#fff2cc;strokeColor=#d6b656;" vertex="1" parent="1">
          <mxGeometry x="570" y="670" width="150.5" height="200" as="geometry" />
        </mxCell>
        <mxCell id="l0X42Bm0tS4iPZdSs6m8-14" value="История обращений" style="text;html=1;align=center;verticalAlign=middle;whiteSpace=wrap;rounded=0;" vertex="1" parent="1">
          <mxGeometry x="560" y="670" width="143" height="30" as="geometry" />
        </mxCell>
        <mxCell id="l0X42Bm0tS4iPZdSs6m8-17" value="Вопрос 2&amp;nbsp;" style="rounded=0;whiteSpace=wrap;html=1;fillColor=#f5f5f5;strokeColor=#666666;fontColor=#333333;" vertex="1" parent="1">
          <mxGeometry x="585.25" y="740" width="120" height="30" as="geometry" />
        </mxCell>
        <mxCell id="l0X42Bm0tS4iPZdSs6m8-29" value="основной экран" style="text;html=1;align=center;verticalAlign=middle;whiteSpace=wrap;rounded=0;" vertex="1" parent="1">
          <mxGeometry x="560.75" y="580" width="120" height="30" as="geometry" />
        </mxCell>
        <mxCell id="l0X42Bm0tS4iPZdSs6m8-35" value="" style="endArrow=classic;html=1;rounded=0;exitX=1;exitY=0.5;exitDx=0;exitDy=0;entryX=0.5;entryY=0;entryDx=0;entryDy=0;" edge="1" parent="1" source="l0X42Bm0tS4iPZdSs6m8-12" target="qpSAZJQmiiE4QWzmZC8Z-1">
          <mxGeometry width="50" height="50" relative="1" as="geometry">
            <mxPoint x="1083" y="670" as="sourcePoint" />
            <mxPoint x="700" y="558" as="targetPoint" />
            <Array as="points">
              <mxPoint x="780" y="680" />
              <mxPoint x="780" y="520" />
              <mxPoint x="170" y="520" />
            </Array>
          </mxGeometry>
        </mxCell>
        <mxCell id="l0X42Bm0tS4iPZdSs6m8-37" value="&amp;gt;&amp;lt;" style="rounded=0;whiteSpace=wrap;html=1;fillColor=#f8cecc;strokeColor=#b85450;" vertex="1" parent="1">
          <mxGeometry x="697.5" y="670" width="23" height="20" as="geometry" />
        </mxCell>
        <mxCell id="l0X42Bm0tS4iPZdSs6m8-40" value="Вопрос 1" style="rounded=0;whiteSpace=wrap;html=1;fillColor=#f5f5f5;strokeColor=#666666;fontColor=#333333;" vertex="1" parent="1">
          <mxGeometry x="585" y="700" width="120" height="30" as="geometry" />
        </mxCell>
        <mxCell id="l0X42Bm0tS4iPZdSs6m8-41" value="" style="rounded=0;whiteSpace=wrap;html=1;fillColor=#e1d5e7;strokeColor=#9673a6;" vertex="1" parent="1">
          <mxGeometry x="850" y="560" width="240" height="330" as="geometry" />
        </mxCell>
        <mxCell id="l0X42Bm0tS4iPZdSs6m8-42" value="Обращение" style="rounded=0;whiteSpace=wrap;html=1;fillColor=#f5f5f5;strokeColor=#666666;fontColor=#333333;" vertex="1" parent="1">
          <mxGeometry x="910" y="660" width="170" height="220" as="geometry" />
        </mxCell>
        <mxCell id="l0X42Bm0tS4iPZdSs6m8-43" value="&amp;gt;&amp;lt;" style="rounded=0;whiteSpace=wrap;html=1;fillColor=#f8cecc;strokeColor=#b85450;" vertex="1" parent="1">
          <mxGeometry x="1047.5" y="670" width="23" height="20" as="geometry" />
        </mxCell>
        <mxCell id="l0X42Bm0tS4iPZdSs6m8-44" value="" style="rounded=0;whiteSpace=wrap;html=1;fillColor=#fff2cc;strokeColor=#d6b656;" vertex="1" parent="1">
          <mxGeometry x="920" y="670" width="150.5" height="200" as="geometry" />
        </mxCell>
        <mxCell id="l0X42Bm0tS4iPZdSs6m8-45" value="чат с консультантом" style="text;html=1;align=center;verticalAlign=middle;whiteSpace=wrap;rounded=0;" vertex="1" parent="1">
          <mxGeometry x="910" y="670" width="143" height="30" as="geometry" />
        </mxCell>
        <mxCell id="l0X42Bm0tS4iPZdSs6m8-48" value="..." style="rounded=0;whiteSpace=wrap;html=1;fillColor=#f5f5f5;strokeColor=#666666;fontColor=#333333;" vertex="1" parent="1">
          <mxGeometry x="935.25" y="740" width="120" height="120" as="geometry" />
        </mxCell>
        <mxCell id="l0X42Bm0tS4iPZdSs6m8-49" value="основной экран" style="text;html=1;align=center;verticalAlign=middle;whiteSpace=wrap;rounded=0;" vertex="1" parent="1">
          <mxGeometry x="910.75" y="580" width="120" height="30" as="geometry" />
        </mxCell>
        <mxCell id="l0X42Bm0tS4iPZdSs6m8-50" value="&amp;gt;&amp;lt;" style="rounded=0;whiteSpace=wrap;html=1;fillColor=#f8cecc;strokeColor=#b85450;" vertex="1" parent="1">
          <mxGeometry x="1047.5" y="670" width="23" height="20" as="geometry" />
        </mxCell>
        <mxCell id="l0X42Bm0tS4iPZdSs6m8-51" value="Вопрос N" style="rounded=0;whiteSpace=wrap;html=1;fillColor=#f5f5f5;strokeColor=#666666;fontColor=#333333;" vertex="1" parent="1">
          <mxGeometry x="935" y="700" width="120" height="30" as="geometry" />
        </mxCell>
        <mxCell id="l0X42Bm0tS4iPZdSs6m8-52" value="Вопрос 3&amp;nbsp;" style="rounded=0;whiteSpace=wrap;html=1;fillColor=#f5f5f5;strokeColor=#666666;fontColor=#333333;" vertex="1" parent="1">
          <mxGeometry x="585" y="776" width="120" height="34" as="geometry" />
        </mxCell>
        <mxCell id="l0X42Bm0tS4iPZdSs6m8-53" value="новый вопрос" style="rounded=0;whiteSpace=wrap;html=1;fillColor=#f5f5f5;strokeColor=#666666;fontColor=#333333;" vertex="1" parent="1">
          <mxGeometry x="585.25" y="820" width="120" height="25" as="geometry" />
        </mxCell>
        <mxCell id="l0X42Bm0tS4iPZdSs6m8-55" value="" style="rounded=0;whiteSpace=wrap;html=1;fillColor=#e1d5e7;strokeColor=#9673a6;" vertex="1" parent="1">
          <mxGeometry x="860" y="920" width="240" height="330" as="geometry" />
        </mxCell>
        <mxCell id="l0X42Bm0tS4iPZdSs6m8-56" value="" style="rounded=0;whiteSpace=wrap;html=1;fillColor=#f5f5f5;strokeColor=#666666;fontColor=#333333;" vertex="1" parent="1">
          <mxGeometry x="920" y="1020" width="170" height="220" as="geometry" />
        </mxCell>
        <mxCell id="l0X42Bm0tS4iPZdSs6m8-57" value="&amp;gt;&amp;lt;" style="rounded=0;whiteSpace=wrap;html=1;fillColor=#f8cecc;strokeColor=#b85450;" vertex="1" parent="1">
          <mxGeometry x="1057.5" y="1030" width="23" height="20" as="geometry" />
        </mxCell>
        <mxCell id="l0X42Bm0tS4iPZdSs6m8-58" value="" style="rounded=0;whiteSpace=wrap;html=1;fillColor=#fff2cc;strokeColor=#d6b656;" vertex="1" parent="1">
          <mxGeometry x="930" y="1030" width="150.5" height="200" as="geometry" />
        </mxCell>
        <mxCell id="l0X42Bm0tS4iPZdSs6m8-59" value="чат с консультантом" style="text;html=1;align=center;verticalAlign=middle;whiteSpace=wrap;rounded=0;" vertex="1" parent="1">
          <mxGeometry x="920" y="1030" width="143" height="30" as="geometry" />
        </mxCell>
        <mxCell id="l0X42Bm0tS4iPZdSs6m8-60" value="&lt;font style=&quot;font-size: 10px;&quot;&gt;&amp;nbsp;q w e r t y u i o p&lt;br&gt;a s d f g h j k l&amp;nbsp;&lt;br&gt;z x c v b n m&lt;/font&gt;" style="rounded=0;whiteSpace=wrap;html=1;fillColor=#f5f5f5;strokeColor=#666666;fontColor=#333333;" vertex="1" parent="1">
          <mxGeometry x="938.5" y="1170" width="84.5" height="50" as="geometry" />
        </mxCell>
        <mxCell id="l0X42Bm0tS4iPZdSs6m8-61" value="&lt;font style=&quot;font-size: 10px;&quot;&gt;отправить&lt;/font&gt;" style="rounded=0;whiteSpace=wrap;html=1;fillColor=#009900;strokeColor=#009900;" vertex="1" parent="1">
          <mxGeometry x="1025.5" y="1170" width="47.5" height="20" as="geometry" />
        </mxCell>
        <mxCell id="l0X42Bm0tS4iPZdSs6m8-62" value="" style="rounded=0;whiteSpace=wrap;html=1;fillColor=#f5f5f5;strokeColor=#666666;fontColor=#333333;align=left;" vertex="1" parent="1">
          <mxGeometry x="945.25" y="1100" width="120" height="60" as="geometry" />
        </mxCell>
        <mxCell id="l0X42Bm0tS4iPZdSs6m8-63" value="основной экран" style="text;html=1;align=center;verticalAlign=middle;whiteSpace=wrap;rounded=0;" vertex="1" parent="1">
          <mxGeometry x="920.75" y="940" width="120" height="30" as="geometry" />
        </mxCell>
        <mxCell id="l0X42Bm0tS4iPZdSs6m8-64" value="&amp;gt;&amp;lt;" style="rounded=0;whiteSpace=wrap;html=1;fillColor=#f8cecc;strokeColor=#b85450;" vertex="1" parent="1">
          <mxGeometry x="1057.5" y="1030" width="23" height="20" as="geometry" />
        </mxCell>
        <mxCell id="l0X42Bm0tS4iPZdSs6m8-65" value="&amp;nbsp;Тема:" style="rounded=0;whiteSpace=wrap;html=1;fillColor=#f5f5f5;strokeColor=#666666;fontColor=#333333;align=left;" vertex="1" parent="1">
          <mxGeometry x="945.25" y="1070" width="120" height="30" as="geometry" />
        </mxCell>
        <mxCell id="l0X42Bm0tS4iPZdSs6m8-66" value="" style="endArrow=classic;html=1;rounded=0;exitX=1;exitY=0.5;exitDx=0;exitDy=0;entryX=0.022;entryY=0.224;entryDx=0;entryDy=0;entryPerimeter=0;" edge="1" parent="1" source="l0X42Bm0tS4iPZdSs6m8-53">
          <mxGeometry width="50" height="50" relative="1" as="geometry">
            <mxPoint x="705.25" y="835.5" as="sourcePoint" />
            <mxPoint x="923.74" y="1072.28" as="targetPoint" />
            <Array as="points">
              <mxPoint x="780" y="833" />
              <mxPoint x="780" y="1072" />
            </Array>
          </mxGeometry>
        </mxCell>
        <mxCell id="l0X42Bm0tS4iPZdSs6m8-67" value="N - выбранный &lt;br&gt;номер вопроса" style="endArrow=classic;html=1;rounded=0;entryX=-0.001;entryY=0.426;entryDx=0;entryDy=0;entryPerimeter=0;" edge="1" parent="1" target="l0X42Bm0tS4iPZdSs6m8-42">
          <mxGeometry x="-0.3742" width="50" height="50" relative="1" as="geometry">
            <mxPoint x="750" y="755" as="sourcePoint" />
            <mxPoint x="840" y="755" as="targetPoint" />
            <Array as="points">
              <mxPoint x="780" y="754" />
            </Array>
            <mxPoint as="offset" />
          </mxGeometry>
        </mxCell>
        <mxCell id="l0X42Bm0tS4iPZdSs6m8-68" value="" style="endArrow=none;html=1;rounded=0;entryX=1;entryY=0.5;entryDx=0;entryDy=0;exitX=1;exitY=0.5;exitDx=0;exitDy=0;" edge="1" parent="1" source="l0X42Bm0tS4iPZdSs6m8-52" target="l0X42Bm0tS4iPZdSs6m8-40">
          <mxGeometry width="50" height="50" relative="1" as="geometry">
            <mxPoint x="710" y="770" as="sourcePoint" />
            <mxPoint x="750" y="740" as="targetPoint" />
            <Array as="points">
              <mxPoint x="750" y="793" />
              <mxPoint x="750" y="715" />
            </Array>
          </mxGeometry>
        </mxCell>
        <mxCell id="l0X42Bm0tS4iPZdSs6m8-69" value="" style="endArrow=none;html=1;rounded=0;exitX=1;exitY=0.5;exitDx=0;exitDy=0;" edge="1" parent="1" source="l0X42Bm0tS4iPZdSs6m8-17">
          <mxGeometry width="50" height="50" relative="1" as="geometry">
            <mxPoint x="680" y="780" as="sourcePoint" />
            <mxPoint x="750" y="755" as="targetPoint" />
          </mxGeometry>
        </mxCell>
        <mxCell id="l0X42Bm0tS4iPZdSs6m8-70" value="всплывающее окно&amp;nbsp;&lt;br&gt;поверх гл. экрана" style="text;html=1;align=center;verticalAlign=middle;whiteSpace=wrap;rounded=0;" vertex="1" parent="1">
          <mxGeometry x="560.75" y="845" width="170" height="30" as="geometry" />
        </mxCell>
        <mxCell id="l0X42Bm0tS4iPZdSs6m8-76" value="" style="endArrow=classic;html=1;rounded=0;exitX=1;exitY=0.5;exitDx=0;exitDy=0;" edge="1" parent="1" source="l0X42Bm0tS4iPZdSs6m8-50">
          <mxGeometry width="50" height="50" relative="1" as="geometry">
            <mxPoint x="480" y="930" as="sourcePoint" />
            <mxPoint x="130" y="560" as="targetPoint" />
            <Array as="points">
              <mxPoint x="1130" y="680" />
              <mxPoint x="1130" y="480" />
              <mxPoint x="130" y="480" />
            </Array>
          </mxGeometry>
        </mxCell>
        <mxCell id="l0X42Bm0tS4iPZdSs6m8-77" value="" style="endArrow=classic;html=1;rounded=0;exitX=1;exitY=0.25;exitDx=0;exitDy=0;" edge="1" parent="1" source="l0X42Bm0tS4iPZdSs6m8-64">
          <mxGeometry width="50" height="50" relative="1" as="geometry">
            <mxPoint x="1070" y="910" as="sourcePoint" />
            <mxPoint x="95" y="560" as="targetPoint" />
            <Array as="points">
              <mxPoint x="1160" y="1035" />
              <mxPoint x="1160" y="440" />
              <mxPoint x="95" y="440" />
            </Array>
          </mxGeometry>
        </mxCell>
      </root>
    </mxGraphModel>
  </diagram>
</mxfile>
